<?xml version="1.0" encoding="utf-8" standalone="no"?>
<!DOCTYPE svg PUBLIC "-//W3C//DTD SVG 1.1//EN"
  "http://www.w3.org/Graphics/SVG/1.1/DTD/svg11.dtd">
<svg height="189.861369pt" version="1.1" viewBox="0 0 206.971665 189.861369" width="206.971665pt" xmlns="http://www.w3.org/2000/svg" xmlns:xlink="http://www.w3.org/1999/xlink">
 <metadata>
  <rdf:RDF xmlns:cc="http://creativecommons.org/ns#" xmlns:dc="http://purl.org/dc/elements/1.1/" xmlns:rdf="http://www.w3.org/1999/02/22-rdf-syntax-ns#">
   <cc:Work>
    <dc:type rdf:resource="http://purl.org/dc/dcmitype/StillImage"/>
    <dc:date>2022-06-17T12:53:09.001909</dc:date>
    <dc:format>image/svg+xml</dc:format>
    <dc:creator>
     <cc:Agent>
      <dc:title>Matplotlib v3.4.3, https://matplotlib.org/</dc:title>
     </cc:Agent>
    </dc:creator>
   </cc:Work>
  </rdf:RDF>
 </metadata>
 <defs>
  <style type="text/css">*{stroke-linecap:butt;stroke-linejoin:round;}</style>
 </defs>
 <g id="figure_1">
  <g id="patch_1">
   <path d="M -0 189.861369 
L 206.971665 189.861369 
L 206.971665 0 
L -0 0 
z
" style="fill:#ffffff;"/>
  </g>
  <g id="axes_1">
   <g id="patch_2">
    <path d="M 43.78125 165.983244 
L 199.771665 165.983244 
L 199.771665 10.999219 
L 43.78125 10.999219 
z
" style="fill:#ffffff;"/>
   </g>
   <g id="matplotlib.axis_1">
    <g id="xtick_1">
     <g id="line2d_1">
      <defs>
       <path d="M 0 0 
L 0 3.5 
" id="mfe7d2aae30" style="stroke:#000000;stroke-width:0.8;"/>
      </defs>
      <g>
       <use style="stroke:#000000;stroke-width:0.8;" x="81.298727" xlink:href="#mfe7d2aae30" y="165.983244"/>
      </g>
     </g>
     <g id="text_1">
      <!-- −2 -->
      <g transform="translate(73.927633 180.581682)scale(0.1 -0.1)">
       <defs>
        <path d="M 678 2272 
L 4684 2272 
L 4684 1741 
L 678 1741 
L 678 2272 
z
" id="DejaVuSans-2212" transform="scale(0.015625)"/>
        <path d="M 1228 531 
L 3431 531 
L 3431 0 
L 469 0 
L 469 531 
Q 828 903 1448 1529 
Q 2069 2156 2228 2338 
Q 2531 2678 2651 2914 
Q 2772 3150 2772 3378 
Q 2772 3750 2511 3984 
Q 2250 4219 1831 4219 
Q 1534 4219 1204 4116 
Q 875 4013 500 3803 
L 500 4441 
Q 881 4594 1212 4672 
Q 1544 4750 1819 4750 
Q 2544 4750 2975 4387 
Q 3406 4025 3406 3419 
Q 3406 3131 3298 2873 
Q 3191 2616 2906 2266 
Q 2828 2175 2409 1742 
Q 1991 1309 1228 531 
z
" id="DejaVuSans-32" transform="scale(0.015625)"/>
       </defs>
       <use xlink:href="#DejaVuSans-2212"/>
       <use x="83.789062" xlink:href="#DejaVuSans-32"/>
      </g>
     </g>
    </g>
    <g id="xtick_2">
     <g id="line2d_2">
      <g>
       <use style="stroke:#000000;stroke-width:0.8;" x="121.93716" xlink:href="#mfe7d2aae30" y="165.983244"/>
      </g>
     </g>
     <g id="text_2">
      <!-- 0 -->
      <g transform="translate(118.75591 180.581682)scale(0.1 -0.1)">
       <defs>
        <path d="M 2034 4250 
Q 1547 4250 1301 3770 
Q 1056 3291 1056 2328 
Q 1056 1369 1301 889 
Q 1547 409 2034 409 
Q 2525 409 2770 889 
Q 3016 1369 3016 2328 
Q 3016 3291 2770 3770 
Q 2525 4250 2034 4250 
z
M 2034 4750 
Q 2819 4750 3233 4129 
Q 3647 3509 3647 2328 
Q 3647 1150 3233 529 
Q 2819 -91 2034 -91 
Q 1250 -91 836 529 
Q 422 1150 422 2328 
Q 422 3509 836 4129 
Q 1250 4750 2034 4750 
z
" id="DejaVuSans-30" transform="scale(0.015625)"/>
       </defs>
       <use xlink:href="#DejaVuSans-30"/>
      </g>
     </g>
    </g>
    <g id="xtick_3">
     <g id="line2d_3">
      <g>
       <use style="stroke:#000000;stroke-width:0.8;" x="162.575593" xlink:href="#mfe7d2aae30" y="165.983244"/>
      </g>
     </g>
     <g id="text_3">
      <!-- 2 -->
      <g transform="translate(159.394343 180.581682)scale(0.1 -0.1)">
       <use xlink:href="#DejaVuSans-32"/>
      </g>
     </g>
    </g>
   </g>
   <g id="matplotlib.axis_2">
    <g id="ytick_1">
     <g id="line2d_4">
      <defs>
       <path d="M 0 0 
L -3.5 0 
" id="me1bea9b4f1" style="stroke:#000000;stroke-width:0.8;"/>
      </defs>
      <g>
       <use style="stroke:#000000;stroke-width:0.8;" x="43.78125" xlink:href="#me1bea9b4f1" y="160.405619"/>
      </g>
     </g>
     <g id="text_4">
      <!-- 0.0 -->
      <g transform="translate(20.878125 164.204838)scale(0.1 -0.1)">
       <defs>
        <path d="M 684 794 
L 1344 794 
L 1344 0 
L 684 0 
L 684 794 
z
" id="DejaVuSans-2e" transform="scale(0.015625)"/>
       </defs>
       <use xlink:href="#DejaVuSans-30"/>
       <use x="63.623047" xlink:href="#DejaVuSans-2e"/>
       <use x="95.410156" xlink:href="#DejaVuSans-30"/>
      </g>
     </g>
    </g>
    <g id="ytick_2">
     <g id="line2d_5">
      <g>
       <use style="stroke:#000000;stroke-width:0.8;" x="43.78125" xlink:href="#me1bea9b4f1" y="110.603486"/>
      </g>
     </g>
     <g id="text_5">
      <!-- 0.1 -->
      <g transform="translate(20.878125 114.402704)scale(0.1 -0.1)">
       <defs>
        <path d="M 794 531 
L 1825 531 
L 1825 4091 
L 703 3866 
L 703 4441 
L 1819 4666 
L 2450 4666 
L 2450 531 
L 3481 531 
L 3481 0 
L 794 0 
L 794 531 
z
" id="DejaVuSans-31" transform="scale(0.015625)"/>
       </defs>
       <use xlink:href="#DejaVuSans-30"/>
       <use x="63.623047" xlink:href="#DejaVuSans-2e"/>
       <use x="95.410156" xlink:href="#DejaVuSans-31"/>
      </g>
     </g>
    </g>
    <g id="ytick_3">
     <g id="line2d_6">
      <g>
       <use style="stroke:#000000;stroke-width:0.8;" x="43.78125" xlink:href="#me1bea9b4f1" y="60.801352"/>
      </g>
     </g>
     <g id="text_6">
      <!-- 0.2 -->
      <g transform="translate(20.878125 64.600571)scale(0.1 -0.1)">
       <use xlink:href="#DejaVuSans-30"/>
       <use x="63.623047" xlink:href="#DejaVuSans-2e"/>
       <use x="95.410156" xlink:href="#DejaVuSans-32"/>
      </g>
     </g>
    </g>
    <g id="ytick_4">
     <g id="line2d_7">
      <g>
       <use style="stroke:#000000;stroke-width:0.8;" x="43.78125" xlink:href="#me1bea9b4f1" y="10.999219"/>
      </g>
     </g>
     <g id="text_7">
      <!-- 0.3 -->
      <g transform="translate(20.878125 14.798437)scale(0.1 -0.1)">
       <defs>
        <path d="M 2597 2516 
Q 3050 2419 3304 2112 
Q 3559 1806 3559 1356 
Q 3559 666 3084 287 
Q 2609 -91 1734 -91 
Q 1441 -91 1130 -33 
Q 819 25 488 141 
L 488 750 
Q 750 597 1062 519 
Q 1375 441 1716 441 
Q 2309 441 2620 675 
Q 2931 909 2931 1356 
Q 2931 1769 2642 2001 
Q 2353 2234 1838 2234 
L 1294 2234 
L 1294 2753 
L 1863 2753 
Q 2328 2753 2575 2939 
Q 2822 3125 2822 3475 
Q 2822 3834 2567 4026 
Q 2313 4219 1838 4219 
Q 1578 4219 1281 4162 
Q 984 4106 628 3988 
L 628 4550 
Q 988 4650 1302 4700 
Q 1616 4750 1894 4750 
Q 2613 4750 3031 4423 
Q 3450 4097 3450 3541 
Q 3450 3153 3228 2886 
Q 3006 2619 2597 2516 
z
" id="DejaVuSans-33" transform="scale(0.015625)"/>
       </defs>
       <use xlink:href="#DejaVuSans-30"/>
       <use x="63.623047" xlink:href="#DejaVuSans-2e"/>
       <use x="95.410156" xlink:href="#DejaVuSans-33"/>
      </g>
     </g>
    </g>
    <g id="text_8">
     <!-- [a.u.] -->
     <g transform="translate(14.798438 101.803732)rotate(-90)scale(0.1 -0.1)">
      <defs>
       <path d="M 550 4863 
L 1875 4863 
L 1875 4416 
L 1125 4416 
L 1125 -397 
L 1875 -397 
L 1875 -844 
L 550 -844 
L 550 4863 
z
" id="DejaVuSans-5b" transform="scale(0.015625)"/>
       <path d="M 2194 1759 
Q 1497 1759 1228 1600 
Q 959 1441 959 1056 
Q 959 750 1161 570 
Q 1363 391 1709 391 
Q 2188 391 2477 730 
Q 2766 1069 2766 1631 
L 2766 1759 
L 2194 1759 
z
M 3341 1997 
L 3341 0 
L 2766 0 
L 2766 531 
Q 2569 213 2275 61 
Q 1981 -91 1556 -91 
Q 1019 -91 701 211 
Q 384 513 384 1019 
Q 384 1609 779 1909 
Q 1175 2209 1959 2209 
L 2766 2209 
L 2766 2266 
Q 2766 2663 2505 2880 
Q 2244 3097 1772 3097 
Q 1472 3097 1187 3025 
Q 903 2953 641 2809 
L 641 3341 
Q 956 3463 1253 3523 
Q 1550 3584 1831 3584 
Q 2591 3584 2966 3190 
Q 3341 2797 3341 1997 
z
" id="DejaVuSans-61" transform="scale(0.015625)"/>
       <path d="M 544 1381 
L 544 3500 
L 1119 3500 
L 1119 1403 
Q 1119 906 1312 657 
Q 1506 409 1894 409 
Q 2359 409 2629 706 
Q 2900 1003 2900 1516 
L 2900 3500 
L 3475 3500 
L 3475 0 
L 2900 0 
L 2900 538 
Q 2691 219 2414 64 
Q 2138 -91 1772 -91 
Q 1169 -91 856 284 
Q 544 659 544 1381 
z
M 1991 3584 
L 1991 3584 
z
" id="DejaVuSans-75" transform="scale(0.015625)"/>
       <path d="M 1947 4863 
L 1947 -844 
L 622 -844 
L 622 -397 
L 1369 -397 
L 1369 4416 
L 622 4416 
L 622 4863 
L 1947 4863 
z
" id="DejaVuSans-5d" transform="scale(0.015625)"/>
      </defs>
      <use xlink:href="#DejaVuSans-5b"/>
      <use x="39.013672" xlink:href="#DejaVuSans-61"/>
      <use x="100.292969" xlink:href="#DejaVuSans-2e"/>
      <use x="132.080078" xlink:href="#DejaVuSans-75"/>
      <use x="195.458984" xlink:href="#DejaVuSans-2e"/>
      <use x="227.246094" xlink:href="#DejaVuSans-5d"/>
     </g>
    </g>
   </g>
   <g id="line2d_8">
    <path clip-path="url(#p9c5c8a9b33)" d="M 50.871723 154.107726 
L 53.140675 153.831587 
L 57.25315 153.243204 
L 58.671244 153.298957 
L 60.089339 153.586616 
L 61.649243 154.145333 
L 64.910861 155.413842 
L 65.903527 155.545639 
L 66.896193 155.439236 
L 67.74705 155.125533 
L 68.739716 154.487804 
L 69.874192 153.432287 
L 71.434096 151.607509 
L 73.277619 149.497461 
L 74.270286 148.706846 
L 74.979333 148.399226 
L 75.68838 148.357779 
L 76.255618 148.535153 
L 76.822856 148.908035 
L 77.531903 149.648914 
L 78.38276 150.90794 
L 79.517236 153.077784 
L 82.211616 158.49945 
L 82.920663 159.409169 
L 83.487901 159.82017 
L 83.91333 159.907106 
L 84.338758 159.781285 
L 84.764186 159.425304 
L 85.331424 158.569521 
L 85.898662 157.259462 
L 86.607709 154.974247 
L 87.458566 151.317179 
L 88.451233 145.942959 
L 89.869327 136.846062 
L 92.138279 122.133235 
L 93.130945 117.09557 
L 93.839992 114.447976 
L 94.40723 113.013333 
L 94.832659 112.369951 
L 95.258087 112.114191 
L 95.541706 112.162394 
L 95.967134 112.563173 
L 96.392563 113.35099 
L 96.959801 114.975149 
L 97.668848 117.845823 
L 98.519705 122.293191 
L 100.079609 131.99997 
L 101.497704 140.373843 
L 102.34856 144.127773 
L 102.915798 145.795602 
L 103.341227 146.517994 
L 103.624846 146.72204 
L 103.908465 146.694632 
L 104.192084 146.422333 
L 104.617512 145.543044 
L 105.04294 144.084784 
L 105.610178 141.230377 
L 106.319226 136.225586 
L 107.170082 128.259694 
L 108.162749 116.696623 
L 109.722653 95.45654 
L 111.849795 66.892026 
L 112.842461 56.367577 
L 113.551508 50.673206 
L 114.118746 47.404979 
L 114.685984 45.37692 
L 115.111413 44.700737 
L 115.395032 44.658768 
L 115.678651 44.943974 
L 115.962269 45.550892 
L 116.387698 47.058244 
L 116.954936 50.13486 
L 117.663983 55.560506 
L 118.51484 64.050339 
L 119.649316 77.818467 
L 123.194552 122.829055 
L 124.187219 131.874142 
L 124.896266 136.678656 
L 125.605313 139.998336 
L 126.172551 141.577933 
L 126.59798 142.151989 
L 126.881599 142.255229 
L 127.165217 142.149066 
L 127.590646 141.613145 
L 128.016074 140.665496 
L 128.583312 138.845924 
L 129.434169 135.186385 
L 130.852264 127.789123 
L 132.270358 120.688179 
L 133.121215 117.382036 
L 133.830262 115.461139 
L 134.3975 114.558824 
L 134.822929 114.278179 
L 135.106548 114.284999 
L 135.531976 114.582954 
L 135.957405 115.224035 
L 136.524642 116.592889 
L 137.23369 119.062363 
L 138.084547 122.977353 
L 139.219022 129.362748 
L 142.764259 150.268657 
L 143.756925 154.537245 
L 144.607782 157.263204 
L 145.316829 158.842301 
L 145.884067 159.659713 
L 146.451305 160.101768 
L 146.876734 160.204974 
L 147.302162 160.130179 
L 147.8694 159.785399 
L 148.578447 159.029406 
L 149.571113 157.546344 
L 152.832731 152.27235 
L 153.683588 151.407663 
L 154.392635 150.950557 
L 155.101683 150.737673 
L 155.81073 150.76079 
L 156.519777 150.994715 
L 157.370634 151.507177 
L 158.50511 152.465418 
L 162.050347 155.657902 
L 163.184822 156.284888 
L 164.177489 156.596889 
L 165.170155 156.698453 
L 166.304631 156.599677 
L 167.864535 156.218029 
L 171.551581 155.224546 
L 173.253295 155.059587 
L 175.096818 155.120773 
L 178.358436 155.513055 
L 181.336434 155.757582 
L 184.314433 155.749746 
L 192.681192 155.577154 
L 192.681192 155.577154 
" style="fill:none;stroke:#e66100;stroke-linecap:square;stroke-width:1.5;"/>
   </g>
   <g id="patch_3">
    <path d="M 43.78125 165.983244 
L 43.78125 10.999219 
" style="fill:none;stroke:#000000;stroke-linecap:square;stroke-linejoin:miter;stroke-width:0.8;"/>
   </g>
   <g id="patch_4">
    <path d="M 199.771665 165.983244 
L 199.771665 10.999219 
" style="fill:none;stroke:#000000;stroke-linecap:square;stroke-linejoin:miter;stroke-width:0.8;"/>
   </g>
   <g id="patch_5">
    <path d="M 43.78125 165.983244 
L 199.771665 165.983244 
" style="fill:none;stroke:#000000;stroke-linecap:square;stroke-linejoin:miter;stroke-width:0.8;"/>
   </g>
   <g id="patch_6">
    <path d="M 43.78125 10.999219 
L 199.771665 10.999219 
" style="fill:none;stroke:#000000;stroke-linecap:square;stroke-linejoin:miter;stroke-width:0.8;"/>
   </g>
  </g>
 </g>
 <defs>
  <clipPath id="p9c5c8a9b33">
   <rect height="154.984026" width="155.990415" x="43.78125" y="10.999219"/>
  </clipPath>
 </defs>
</svg>
