<?xml version="1.0" encoding="utf-8" standalone="no"?>
<!DOCTYPE svg PUBLIC "-//W3C//DTD SVG 1.1//EN"
  "http://www.w3.org/Graphics/SVG/1.1/DTD/svg11.dtd">
<svg height="189.861369pt" version="1.1" viewBox="0 0 206.971665 189.861369" width="206.971665pt" xmlns="http://www.w3.org/2000/svg" xmlns:xlink="http://www.w3.org/1999/xlink">
 <metadata>
  <rdf:RDF xmlns:cc="http://creativecommons.org/ns#" xmlns:dc="http://purl.org/dc/elements/1.1/" xmlns:rdf="http://www.w3.org/1999/02/22-rdf-syntax-ns#">
   <cc:Work>
    <dc:type rdf:resource="http://purl.org/dc/dcmitype/StillImage"/>
    <dc:date>2022-06-17T15:38:14.286694</dc:date>
    <dc:format>image/svg+xml</dc:format>
    <dc:creator>
     <cc:Agent>
      <dc:title>Matplotlib v3.4.3, https://matplotlib.org/</dc:title>
     </cc:Agent>
    </dc:creator>
   </cc:Work>
  </rdf:RDF>
 </metadata>
 <defs>
  <style type="text/css">*{stroke-linecap:butt;stroke-linejoin:round;}</style>
 </defs>
 <g id="figure_1">
  <g id="patch_1">
   <path d="M -0 189.861369 
L 206.971665 189.861369 
L 206.971665 0 
L -0 0 
z
" style="fill:#ffffff;"/>
  </g>
  <g id="axes_1">
   <g id="patch_2">
    <path d="M 43.78125 165.983244 
L 199.771665 165.983244 
L 199.771665 10.999219 
L 43.78125 10.999219 
z
" style="fill:#ffffff;"/>
   </g>
   <g id="matplotlib.axis_1">
    <g id="xtick_1">
     <g id="line2d_1">
      <defs>
       <path d="M 0 0 
L 0 3.5 
" id="m7910cc2793" style="stroke:#000000;stroke-width:0.8;"/>
      </defs>
      <g>
       <use style="stroke:#000000;stroke-width:0.8;" x="81.211015" xlink:href="#m7910cc2793" y="165.983244"/>
      </g>
     </g>
     <g id="text_1">
      <!-- −2 -->
      <g transform="translate(73.839921 180.581682)scale(0.1 -0.1)">
       <defs>
        <path d="M 678 2272 
L 4684 2272 
L 4684 1741 
L 678 1741 
L 678 2272 
z
" id="DejaVuSans-2212" transform="scale(0.015625)"/>
        <path d="M 1228 531 
L 3431 531 
L 3431 0 
L 469 0 
L 469 531 
Q 828 903 1448 1529 
Q 2069 2156 2228 2338 
Q 2531 2678 2651 2914 
Q 2772 3150 2772 3378 
Q 2772 3750 2511 3984 
Q 2250 4219 1831 4219 
Q 1534 4219 1204 4116 
Q 875 4013 500 3803 
L 500 4441 
Q 881 4594 1212 4672 
Q 1544 4750 1819 4750 
Q 2544 4750 2975 4387 
Q 3406 4025 3406 3419 
Q 3406 3131 3298 2873 
Q 3191 2616 2906 2266 
Q 2828 2175 2409 1742 
Q 1991 1309 1228 531 
z
" id="DejaVuSans-32" transform="scale(0.015625)"/>
       </defs>
       <use xlink:href="#DejaVuSans-2212"/>
       <use x="83.789062" xlink:href="#DejaVuSans-32"/>
      </g>
     </g>
    </g>
    <g id="xtick_2">
     <g id="line2d_2">
      <g>
       <use style="stroke:#000000;stroke-width:0.8;" x="121.902397" xlink:href="#m7910cc2793" y="165.983244"/>
      </g>
     </g>
     <g id="text_2">
      <!-- 0 -->
      <g transform="translate(118.721147 180.581682)scale(0.1 -0.1)">
       <defs>
        <path d="M 2034 4250 
Q 1547 4250 1301 3770 
Q 1056 3291 1056 2328 
Q 1056 1369 1301 889 
Q 1547 409 2034 409 
Q 2525 409 2770 889 
Q 3016 1369 3016 2328 
Q 3016 3291 2770 3770 
Q 2525 4250 2034 4250 
z
M 2034 4750 
Q 2819 4750 3233 4129 
Q 3647 3509 3647 2328 
Q 3647 1150 3233 529 
Q 2819 -91 2034 -91 
Q 1250 -91 836 529 
Q 422 1150 422 2328 
Q 422 3509 836 4129 
Q 1250 4750 2034 4750 
z
" id="DejaVuSans-30" transform="scale(0.015625)"/>
       </defs>
       <use xlink:href="#DejaVuSans-30"/>
      </g>
     </g>
    </g>
    <g id="xtick_3">
     <g id="line2d_3">
      <g>
       <use style="stroke:#000000;stroke-width:0.8;" x="162.59378" xlink:href="#m7910cc2793" y="165.983244"/>
      </g>
     </g>
     <g id="text_3">
      <!-- 2 -->
      <g transform="translate(159.41253 180.581682)scale(0.1 -0.1)">
       <use xlink:href="#DejaVuSans-32"/>
      </g>
     </g>
    </g>
   </g>
   <g id="matplotlib.axis_2">
    <g id="ytick_1">
     <g id="line2d_4">
      <defs>
       <path d="M 0 0 
L -3.5 0 
" id="mbc505a9ac5" style="stroke:#000000;stroke-width:0.8;"/>
      </defs>
      <g>
       <use style="stroke:#000000;stroke-width:0.8;" x="43.78125" xlink:href="#mbc505a9ac5" y="165.983244"/>
      </g>
     </g>
     <g id="text_4">
      <!-- 0.0 -->
      <g transform="translate(20.878125 169.782463)scale(0.1 -0.1)">
       <defs>
        <path d="M 684 794 
L 1344 794 
L 1344 0 
L 684 0 
L 684 794 
z
" id="DejaVuSans-2e" transform="scale(0.015625)"/>
       </defs>
       <use xlink:href="#DejaVuSans-30"/>
       <use x="63.623047" xlink:href="#DejaVuSans-2e"/>
       <use x="95.410156" xlink:href="#DejaVuSans-30"/>
      </g>
     </g>
    </g>
    <g id="ytick_2">
     <g id="line2d_5">
      <g>
       <use style="stroke:#000000;stroke-width:0.8;" x="43.78125" xlink:href="#mbc505a9ac5" y="10.999219"/>
      </g>
     </g>
     <g id="text_5">
      <!-- 0.1 -->
      <g transform="translate(20.878125 14.798437)scale(0.1 -0.1)">
       <defs>
        <path d="M 794 531 
L 1825 531 
L 1825 4091 
L 703 3866 
L 703 4441 
L 1819 4666 
L 2450 4666 
L 2450 531 
L 3481 531 
L 3481 0 
L 794 0 
L 794 531 
z
" id="DejaVuSans-31" transform="scale(0.015625)"/>
       </defs>
       <use xlink:href="#DejaVuSans-30"/>
       <use x="63.623047" xlink:href="#DejaVuSans-2e"/>
       <use x="95.410156" xlink:href="#DejaVuSans-31"/>
      </g>
     </g>
    </g>
    <g id="text_6">
     <!-- [a.u.] -->
     <g transform="translate(14.798438 101.803732)rotate(-90)scale(0.1 -0.1)">
      <defs>
       <path d="M 550 4863 
L 1875 4863 
L 1875 4416 
L 1125 4416 
L 1125 -397 
L 1875 -397 
L 1875 -844 
L 550 -844 
L 550 4863 
z
" id="DejaVuSans-5b" transform="scale(0.015625)"/>
       <path d="M 2194 1759 
Q 1497 1759 1228 1600 
Q 959 1441 959 1056 
Q 959 750 1161 570 
Q 1363 391 1709 391 
Q 2188 391 2477 730 
Q 2766 1069 2766 1631 
L 2766 1759 
L 2194 1759 
z
M 3341 1997 
L 3341 0 
L 2766 0 
L 2766 531 
Q 2569 213 2275 61 
Q 1981 -91 1556 -91 
Q 1019 -91 701 211 
Q 384 513 384 1019 
Q 384 1609 779 1909 
Q 1175 2209 1959 2209 
L 2766 2209 
L 2766 2266 
Q 2766 2663 2505 2880 
Q 2244 3097 1772 3097 
Q 1472 3097 1187 3025 
Q 903 2953 641 2809 
L 641 3341 
Q 956 3463 1253 3523 
Q 1550 3584 1831 3584 
Q 2591 3584 2966 3190 
Q 3341 2797 3341 1997 
z
" id="DejaVuSans-61" transform="scale(0.015625)"/>
       <path d="M 544 1381 
L 544 3500 
L 1119 3500 
L 1119 1403 
Q 1119 906 1312 657 
Q 1506 409 1894 409 
Q 2359 409 2629 706 
Q 2900 1003 2900 1516 
L 2900 3500 
L 3475 3500 
L 3475 0 
L 2900 0 
L 2900 538 
Q 2691 219 2414 64 
Q 2138 -91 1772 -91 
Q 1169 -91 856 284 
Q 544 659 544 1381 
z
M 1991 3584 
L 1991 3584 
z
" id="DejaVuSans-75" transform="scale(0.015625)"/>
       <path d="M 1947 4863 
L 1947 -844 
L 622 -844 
L 622 -397 
L 1369 -397 
L 1369 4416 
L 622 4416 
L 622 4863 
L 1947 4863 
z
" id="DejaVuSans-5d" transform="scale(0.015625)"/>
      </defs>
      <use xlink:href="#DejaVuSans-5b"/>
      <use x="39.013672" xlink:href="#DejaVuSans-61"/>
      <use x="100.292969" xlink:href="#DejaVuSans-2e"/>
      <use x="132.080078" xlink:href="#DejaVuSans-75"/>
      <use x="195.458984" xlink:href="#DejaVuSans-2e"/>
      <use x="227.246094" xlink:href="#DejaVuSans-5d"/>
     </g>
    </g>
   </g>
   <g id="line2d_6">
    <path clip-path="url(#p41e7d5bcd6)" d="M 50.871723 156.125469 
L 58.671244 156.334262 
L 62.35829 156.155283 
L 65.05267 156.180654 
L 69.874192 156.276627 
L 76.113809 156.042608 
L 84.480567 155.399542 
L 89.585708 155.444203 
L 91.85466 155.139468 
L 94.690849 154.57524 
L 95.258087 154.21466 
L 95.683515 153.72418 
L 96.108944 152.917699 
L 96.534372 151.633677 
L 96.959801 149.66419 
L 97.385229 146.760634 
L 97.952467 140.967569 
L 98.519705 132.43565 
L 99.228752 117.404128 
L 100.079609 93.587569 
L 101.923132 39.67816 
L 102.49037 29.305264 
L 102.915798 24.700658 
L 103.199417 23.168266 
L 103.341227 22.843886 
L 103.483036 22.798726 
L 103.624846 23.018254 
L 103.908465 24.183404 
L 104.333893 27.455108 
L 105.04294 35.581064 
L 107.028273 60.107591 
L 107.87913 67.672322 
L 108.729987 73.420932 
L 109.580843 77.835398 
L 110.57351 81.783946 
L 111.424366 84.370321 
L 112.275223 86.338536 
L 113.12608 87.783571 
L 113.976937 88.820298 
L 114.969603 89.689293 
L 116.387698 90.621622 
L 117.947602 91.405492 
L 118.940268 91.693095 
L 119.932935 91.737366 
L 120.925601 91.523211 
L 122.060077 91.021121 
L 123.619981 90.050114 
L 124.896266 89.019075 
L 125.888932 87.950085 
L 126.881599 86.51344 
L 127.732455 84.904638 
L 128.725122 82.51147 
L 129.717788 79.464776 
L 130.568645 76.158292 
L 131.419502 71.877171 
L 132.128549 67.196125 
L 132.837596 61.129691 
L 133.688453 51.70016 
L 135.106548 32.43332 
L 135.815595 24.087779 
L 136.241023 20.856796 
L 136.524642 19.800887 
L 136.666452 19.660736 
L 136.808261 19.801293 
L 137.09188 20.977472 
L 137.375499 23.407641 
L 137.800928 29.451435 
L 138.368165 41.700895 
L 139.219022 66.619672 
L 140.920736 118.100245 
L 141.629783 133.094308 
L 142.197021 141.518852 
L 142.764259 147.191402 
L 143.331497 150.743221 
L 143.898735 152.823696 
L 144.465973 153.977907 
L 145.03321 154.600801 
L 145.742258 155.006098 
L 146.876734 155.330378 
L 148.862066 155.634778 
L 151.272827 155.781705 
L 156.236159 155.971324 
L 159.923205 156.337266 
L 176.089484 157.016647 
L 178.925673 157.143958 
L 181.903672 157.050951 
L 187.85967 156.755847 
L 192.681192 156.764945 
L 192.681192 156.764945 
" style="fill:none;stroke:#e66100;stroke-linecap:square;stroke-width:1.5;"/>
   </g>
   <g id="patch_3">
    <path d="M 43.78125 165.983244 
L 43.78125 10.999219 
" style="fill:none;stroke:#000000;stroke-linecap:square;stroke-linejoin:miter;stroke-width:0.8;"/>
   </g>
   <g id="patch_4">
    <path d="M 199.771665 165.983244 
L 199.771665 10.999219 
" style="fill:none;stroke:#000000;stroke-linecap:square;stroke-linejoin:miter;stroke-width:0.8;"/>
   </g>
   <g id="patch_5">
    <path d="M 43.78125 165.983244 
L 199.771665 165.983244 
" style="fill:none;stroke:#000000;stroke-linecap:square;stroke-linejoin:miter;stroke-width:0.8;"/>
   </g>
   <g id="patch_6">
    <path d="M 43.78125 10.999219 
L 199.771665 10.999219 
" style="fill:none;stroke:#000000;stroke-linecap:square;stroke-linejoin:miter;stroke-width:0.8;"/>
   </g>
  </g>
 </g>
 <defs>
  <clipPath id="p41e7d5bcd6">
   <rect height="154.984026" width="155.990415" x="43.78125" y="10.999219"/>
  </clipPath>
 </defs>
</svg>
