<?xml version="1.0" encoding="utf-8" standalone="no"?>
<!DOCTYPE svg PUBLIC "-//W3C//DTD SVG 1.1//EN"
  "http://www.w3.org/Graphics/SVG/1.1/DTD/svg11.dtd">
<svg height="266.162001pt" version="1.1" viewBox="0 0 273.8247 266.162001" width="273.8247pt" xmlns="http://www.w3.org/2000/svg" xmlns:xlink="http://www.w3.org/1999/xlink">
 <metadata>
  <rdf:RDF xmlns:cc="http://creativecommons.org/ns#" xmlns:dc="http://purl.org/dc/elements/1.1/" xmlns:rdf="http://www.w3.org/1999/02/22-rdf-syntax-ns#">
   <cc:Work>
    <dc:type rdf:resource="http://purl.org/dc/dcmitype/StillImage"/>
    <dc:date>2022-07-15T13:30:38.613149</dc:date>
    <dc:format>image/svg+xml</dc:format>
    <dc:creator>
     <cc:Agent>
      <dc:title>Matplotlib v3.4.3, https://matplotlib.org/</dc:title>
     </cc:Agent>
    </dc:creator>
   </cc:Work>
  </rdf:RDF>
 </metadata>
 <defs>
  <style type="text/css">*{stroke-linecap:butt;stroke-linejoin:round;}</style>
 </defs>
 <g id="figure_1">
  <g id="patch_1">
   <path d="M 0 266.162001 
L 273.8247 266.162001 
L 273.8247 0 
L 0 0 
z
" style="fill:#ffffff;"/>
  </g>
  <g id="axes_1">
   <g id="patch_2">
    <path d="M 43.78125 228.605751 
L 266.6247 228.605751 
L 266.6247 7.2 
L 43.78125 7.2 
z
" style="fill:#ffffff;"/>
   </g>
   <g id="matplotlib.axis_1">
    <g id="xtick_1">
     <g id="line2d_1">
      <defs>
       <path d="M 0 0 
L 0 3.5 
" id="ma7cbd134c3" style="stroke:#000000;stroke-width:0.8;"/>
      </defs>
      <g>
       <use style="stroke:#000000;stroke-width:0.8;" x="54.31534" xlink:href="#ma7cbd134c3" y="228.605751"/>
      </g>
     </g>
     <g id="text_1">
      <!-- 0 -->
      <g transform="translate(51.13409 243.204188)scale(0.1 -0.1)">
       <defs>
        <path d="M 2034 4250 
Q 1547 4250 1301 3770 
Q 1056 3291 1056 2328 
Q 1056 1369 1301 889 
Q 1547 409 2034 409 
Q 2525 409 2770 889 
Q 3016 1369 3016 2328 
Q 3016 3291 2770 3770 
Q 2525 4250 2034 4250 
z
M 2034 4750 
Q 2819 4750 3233 4129 
Q 3647 3509 3647 2328 
Q 3647 1150 3233 529 
Q 2819 -91 2034 -91 
Q 1250 -91 836 529 
Q 422 1150 422 2328 
Q 422 3509 836 4129 
Q 1250 4750 2034 4750 
z
" id="DejaVuSans-30" transform="scale(0.015625)"/>
       </defs>
       <use xlink:href="#DejaVuSans-30"/>
      </g>
     </g>
    </g>
    <g id="xtick_2">
     <g id="line2d_2">
      <g>
       <use style="stroke:#000000;stroke-width:0.8;" x="135.283822" xlink:href="#ma7cbd134c3" y="228.605751"/>
      </g>
     </g>
     <g id="text_2">
      <!-- 10 -->
      <g transform="translate(128.921322 243.204188)scale(0.1 -0.1)">
       <defs>
        <path d="M 794 531 
L 1825 531 
L 1825 4091 
L 703 3866 
L 703 4441 
L 1819 4666 
L 2450 4666 
L 2450 531 
L 3481 531 
L 3481 0 
L 794 0 
L 794 531 
z
" id="DejaVuSans-31" transform="scale(0.015625)"/>
       </defs>
       <use xlink:href="#DejaVuSans-31"/>
       <use x="63.623047" xlink:href="#DejaVuSans-30"/>
      </g>
     </g>
    </g>
    <g id="xtick_3">
     <g id="line2d_3">
      <g>
       <use style="stroke:#000000;stroke-width:0.8;" x="216.252303" xlink:href="#ma7cbd134c3" y="228.605751"/>
      </g>
     </g>
     <g id="text_3">
      <!-- 20 -->
      <g transform="translate(209.889803 243.204188)scale(0.1 -0.1)">
       <defs>
        <path d="M 1228 531 
L 3431 531 
L 3431 0 
L 469 0 
L 469 531 
Q 828 903 1448 1529 
Q 2069 2156 2228 2338 
Q 2531 2678 2651 2914 
Q 2772 3150 2772 3378 
Q 2772 3750 2511 3984 
Q 2250 4219 1831 4219 
Q 1534 4219 1204 4116 
Q 875 4013 500 3803 
L 500 4441 
Q 881 4594 1212 4672 
Q 1544 4750 1819 4750 
Q 2544 4750 2975 4387 
Q 3406 4025 3406 3419 
Q 3406 3131 3298 2873 
Q 3191 2616 2906 2266 
Q 2828 2175 2409 1742 
Q 1991 1309 1228 531 
z
" id="DejaVuSans-32" transform="scale(0.015625)"/>
       </defs>
       <use xlink:href="#DejaVuSans-32"/>
       <use x="63.623047" xlink:href="#DejaVuSans-30"/>
      </g>
     </g>
    </g>
    <g id="text_4">
     <!-- µm -->
     <g transform="translate(147.151413 256.882313)scale(0.1 -0.1)">
      <defs>
       <path d="M 544 -1331 
L 544 3500 
L 1119 3500 
L 1119 1325 
Q 1119 872 1334 640 
Q 1550 409 1972 409 
Q 2434 409 2667 671 
Q 2900 934 2900 1459 
L 2900 3500 
L 3475 3500 
L 3475 806 
Q 3475 619 3529 530 
Q 3584 441 3700 441 
Q 3728 441 3778 458 
Q 3828 475 3916 513 
L 3916 50 
Q 3788 -22 3673 -56 
Q 3559 -91 3450 -91 
Q 3234 -91 3106 31 
Q 2978 153 2931 403 
Q 2775 156 2548 32 
Q 2322 -91 2016 -91 
Q 1697 -91 1473 31 
Q 1250 153 1119 397 
L 1119 -1331 
L 544 -1331 
z
" id="DejaVuSans-b5" transform="scale(0.015625)"/>
       <path d="M 3328 2828 
Q 3544 3216 3844 3400 
Q 4144 3584 4550 3584 
Q 5097 3584 5394 3201 
Q 5691 2819 5691 2113 
L 5691 0 
L 5113 0 
L 5113 2094 
Q 5113 2597 4934 2840 
Q 4756 3084 4391 3084 
Q 3944 3084 3684 2787 
Q 3425 2491 3425 1978 
L 3425 0 
L 2847 0 
L 2847 2094 
Q 2847 2600 2669 2842 
Q 2491 3084 2119 3084 
Q 1678 3084 1418 2786 
Q 1159 2488 1159 1978 
L 1159 0 
L 581 0 
L 581 3500 
L 1159 3500 
L 1159 2956 
Q 1356 3278 1631 3431 
Q 1906 3584 2284 3584 
Q 2666 3584 2933 3390 
Q 3200 3197 3328 2828 
z
" id="DejaVuSans-6d" transform="scale(0.015625)"/>
      </defs>
      <use xlink:href="#DejaVuSans-b5"/>
      <use x="63.623047" xlink:href="#DejaVuSans-6d"/>
     </g>
    </g>
   </g>
   <g id="matplotlib.axis_2">
    <g id="ytick_1">
     <g id="line2d_4">
      <defs>
       <path d="M 0 0 
L -3.5 0 
" id="m38be563cf7" style="stroke:#000000;stroke-width:0.8;"/>
      </defs>
      <g>
       <use style="stroke:#000000;stroke-width:0.8;" x="43.78125" xlink:href="#m38be563cf7" y="218.541853"/>
      </g>
     </g>
     <g id="text_5">
      <!-- 0.0 -->
      <g transform="translate(20.878125 222.341072)scale(0.1 -0.1)">
       <defs>
        <path d="M 684 794 
L 1344 794 
L 1344 0 
L 684 0 
L 684 794 
z
" id="DejaVuSans-2e" transform="scale(0.015625)"/>
       </defs>
       <use xlink:href="#DejaVuSans-30"/>
       <use x="63.623047" xlink:href="#DejaVuSans-2e"/>
       <use x="95.410156" xlink:href="#DejaVuSans-30"/>
      </g>
     </g>
    </g>
    <g id="ytick_2">
     <g id="line2d_5">
      <g>
       <use style="stroke:#000000;stroke-width:0.8;" x="43.78125" xlink:href="#m38be563cf7" y="117.902875"/>
      </g>
     </g>
     <g id="text_6">
      <!-- 0.5 -->
      <g transform="translate(20.878125 121.702094)scale(0.1 -0.1)">
       <defs>
        <path d="M 691 4666 
L 3169 4666 
L 3169 4134 
L 1269 4134 
L 1269 2991 
Q 1406 3038 1543 3061 
Q 1681 3084 1819 3084 
Q 2600 3084 3056 2656 
Q 3513 2228 3513 1497 
Q 3513 744 3044 326 
Q 2575 -91 1722 -91 
Q 1428 -91 1123 -41 
Q 819 9 494 109 
L 494 744 
Q 775 591 1075 516 
Q 1375 441 1709 441 
Q 2250 441 2565 725 
Q 2881 1009 2881 1497 
Q 2881 1984 2565 2268 
Q 2250 2553 1709 2553 
Q 1456 2553 1204 2497 
Q 953 2441 691 2322 
L 691 4666 
z
" id="DejaVuSans-35" transform="scale(0.015625)"/>
       </defs>
       <use xlink:href="#DejaVuSans-30"/>
       <use x="63.623047" xlink:href="#DejaVuSans-2e"/>
       <use x="95.410156" xlink:href="#DejaVuSans-35"/>
      </g>
     </g>
    </g>
    <g id="ytick_3">
     <g id="line2d_6">
      <g>
       <use style="stroke:#000000;stroke-width:0.8;" x="43.78125" xlink:href="#m38be563cf7" y="17.263898"/>
      </g>
     </g>
     <g id="text_7">
      <!-- 1.0 -->
      <g transform="translate(20.878125 21.063117)scale(0.1 -0.1)">
       <use xlink:href="#DejaVuSans-31"/>
       <use x="63.623047" xlink:href="#DejaVuSans-2e"/>
       <use x="95.410156" xlink:href="#DejaVuSans-30"/>
      </g>
     </g>
    </g>
    <g id="text_8">
     <!-- [a.u.] -->
     <g transform="translate(14.798437 131.215375)rotate(-90)scale(0.1 -0.1)">
      <defs>
       <path d="M 550 4863 
L 1875 4863 
L 1875 4416 
L 1125 4416 
L 1125 -397 
L 1875 -397 
L 1875 -844 
L 550 -844 
L 550 4863 
z
" id="DejaVuSans-5b" transform="scale(0.015625)"/>
       <path d="M 2194 1759 
Q 1497 1759 1228 1600 
Q 959 1441 959 1056 
Q 959 750 1161 570 
Q 1363 391 1709 391 
Q 2188 391 2477 730 
Q 2766 1069 2766 1631 
L 2766 1759 
L 2194 1759 
z
M 3341 1997 
L 3341 0 
L 2766 0 
L 2766 531 
Q 2569 213 2275 61 
Q 1981 -91 1556 -91 
Q 1019 -91 701 211 
Q 384 513 384 1019 
Q 384 1609 779 1909 
Q 1175 2209 1959 2209 
L 2766 2209 
L 2766 2266 
Q 2766 2663 2505 2880 
Q 2244 3097 1772 3097 
Q 1472 3097 1187 3025 
Q 903 2953 641 2809 
L 641 3341 
Q 956 3463 1253 3523 
Q 1550 3584 1831 3584 
Q 2591 3584 2966 3190 
Q 3341 2797 3341 1997 
z
" id="DejaVuSans-61" transform="scale(0.015625)"/>
       <path d="M 544 1381 
L 544 3500 
L 1119 3500 
L 1119 1403 
Q 1119 906 1312 657 
Q 1506 409 1894 409 
Q 2359 409 2629 706 
Q 2900 1003 2900 1516 
L 2900 3500 
L 3475 3500 
L 3475 0 
L 2900 0 
L 2900 538 
Q 2691 219 2414 64 
Q 2138 -91 1772 -91 
Q 1169 -91 856 284 
Q 544 659 544 1381 
z
M 1991 3584 
L 1991 3584 
z
" id="DejaVuSans-75" transform="scale(0.015625)"/>
       <path d="M 1947 4863 
L 1947 -844 
L 622 -844 
L 622 -397 
L 1369 -397 
L 1369 4416 
L 622 4416 
L 622 4863 
L 1947 4863 
z
" id="DejaVuSans-5d" transform="scale(0.015625)"/>
      </defs>
      <use xlink:href="#DejaVuSans-5b"/>
      <use x="39.013672" xlink:href="#DejaVuSans-61"/>
      <use x="100.292969" xlink:href="#DejaVuSans-2e"/>
      <use x="132.080078" xlink:href="#DejaVuSans-75"/>
      <use x="195.458984" xlink:href="#DejaVuSans-2e"/>
      <use x="227.246094" xlink:href="#DejaVuSans-5d"/>
     </g>
    </g>
   </g>
   <g id="line2d_7">
    <path clip-path="url(#p967c911418)" d="M 54.053523 17.408495 
L 55.042423 17.338776 
L 56.031323 17.475865 
L 57.020223 17.817498 
L 58.150394 18.451468 
L 59.280565 19.333894 
L 60.552008 20.603015 
L 61.964722 22.323731 
L 63.659979 24.757074 
L 65.637779 27.996937 
L 68.463207 33.118182 
L 77.363306 49.620649 
L 80.188734 54.222169 
L 82.731619 57.947436 
L 85.133233 61.08227 
L 87.393576 63.689091 
L 89.653918 65.969412 
L 91.914261 67.935653 
L 94.174603 69.603961 
L 96.434946 70.993135 
L 98.695289 72.123375 
L 101.096902 73.063979 
L 103.498516 73.762111 
L 106.041402 74.266127 
L 108.725559 74.568973 
L 111.692258 74.671975 
L 114.941501 74.559896 
L 118.8971 74.187723 
L 124.124142 73.452134 
L 140.794168 70.964743 
L 145.879939 70.470919 
L 149.270453 70.389314 
L 151.389524 70.244437 
L 152.660967 69.928821 
L 153.791138 69.401045 
L 154.921309 68.594031 
L 156.192752 67.372179 
L 159.159452 64.318339 
L 159.865809 63.93695 
L 160.430894 63.849501 
L 160.99598 64.006875 
L 161.561066 64.455361 
L 162.126151 65.238485 
L 162.691237 66.395388 
L 163.397594 68.417115 
L 164.103951 71.123144 
L 164.951579 75.311927 
L 165.940479 81.499898 
L 167.070651 90.192022 
L 168.342093 101.743394 
L 170.178622 120.718276 
L 174.416764 165.334941 
L 175.970749 179.027982 
L 177.383464 189.470265 
L 178.654906 197.150077 
L 179.785077 202.657067 
L 180.915249 207.027295 
L 181.904149 210.026678 
L 182.893048 212.365072 
L 183.881948 214.148603 
L 184.870848 215.479182 
L 185.859748 216.449931 
L 186.989919 217.22274 
L 188.120091 217.732736 
L 189.532805 218.1197 
L 191.369333 218.372417 
L 194.194761 218.50612 
L 201.399603 218.541569 
L 256.495453 218.541853 
L 256.495453 218.541853 
" style="fill:none;stroke:#e66100;stroke-linecap:square;stroke-width:1.5;"/>
   </g>
   <g id="line2d_8">
    <path clip-path="url(#p967c911418)" d="M 53.910498 17.263898 
L 55.93471 17.387929 
L 56.339552 18.327011 
L 56.744395 18.159565 
L 57.958922 20.027296 
L 58.363764 20.403111 
L 58.768607 20.549369 
L 59.173449 20.535152 
L 59.578291 20.703052 
L 59.983134 20.738551 
L 60.387976 21.300321 
L 61.197661 23.265945 
L 62.007346 25.107665 
L 63.626716 27.622037 
L 64.031558 28.460601 
L 64.4364 28.63489 
L 64.841243 29.804924 
L 65.246085 30.062009 
L 65.650928 30.019048 
L 66.05577 29.731732 
L 66.865455 28.669496 
L 67.270297 28.106436 
L 67.67514 27.803131 
L 68.079982 28.013497 
L 68.484824 32.480783 
L 68.889667 30.301881 
L 70.104194 35.2084 
L 70.509036 36.724237 
L 71.723564 37.667119 
L 72.533248 37.865811 
L 72.938091 38.086548 
L 73.342933 38.506908 
L 73.747776 39.160435 
L 74.557461 41.215761 
L 75.367145 44.445527 
L 76.581673 50.152804 
L 77.391357 52.476525 
L 77.7962 53.121867 
L 78.201042 53.978231 
L 78.605885 55.926869 
L 79.010727 55.794956 
L 80.225254 58.779938 
L 80.630097 59.499118 
L 81.034939 59.941461 
L 81.439781 60.040367 
L 81.844624 59.760181 
L 82.249466 59.125839 
L 83.463993 56.685259 
L 83.868836 56.512293 
L 84.273678 56.97893 
L 84.678521 58.075532 
L 87.107575 67.041415 
L 87.512418 67.83789 
L 87.91726 68.36752 
L 88.322102 68.598451 
L 88.726945 68.518792 
L 89.131787 68.16756 
L 90.346314 66.660978 
L 90.751157 68.90987 
L 91.155999 66.468369 
L 91.560842 66.728563 
L 92.370526 67.731302 
L 92.775369 69.007989 
L 93.180211 68.938518 
L 93.585054 70.880875 
L 93.989896 69.960412 
L 94.799581 70.676528 
L 95.204423 72.595596 
L 95.609266 72.456868 
L 96.014108 70.971522 
L 96.418951 72.441553 
L 96.823793 69.665768 
L 97.228635 72.208258 
L 97.633478 70.591538 
L 98.03832 70.841977 
L 98.443163 71.23521 
L 98.848005 73.333638 
L 99.252847 72.018909 
L 100.467375 72.796434 
L 100.872217 73.316173 
L 102.086744 75.327438 
L 102.491587 75.4088 
L 102.896429 72.679249 
L 103.301271 74.149648 
L 104.110956 72.515563 
L 104.515799 72.206987 
L 104.920641 73.552526 
L 105.325483 73.294741 
L 105.730326 73.327786 
L 106.540011 74.149144 
L 106.944853 72.90606 
L 107.349696 74.64378 
L 108.15938 75.482333 
L 109.373908 77.167519 
L 109.77875 75.003809 
L 110.183592 77.600181 
L 110.588435 77.438951 
L 110.993277 77.034459 
L 111.802962 75.767402 
L 112.207804 73.744743 
L 112.612647 74.515913 
L 113.017489 75.825669 
L 113.422332 75.025166 
L 113.827174 73.5493 
L 114.232016 76.156627 
L 114.636859 73.73109 
L 115.446544 74.591295 
L 115.851386 75.179186 
L 116.256229 74.076564 
L 116.661071 76.474506 
L 117.065913 77.076934 
L 117.470756 74.816608 
L 117.875598 77.671114 
L 118.280441 77.451248 
L 118.685283 74.855989 
L 119.090125 76.138197 
L 119.494968 75.45574 
L 119.89981 75.049304 
L 120.304653 74.983197 
L 120.709495 75.151521 
L 121.114337 72.909479 
L 121.51918 75.430662 
L 121.924022 75.296181 
L 122.328865 74.972152 
L 122.733707 71.975237 
L 123.543392 73.614985 
L 124.353077 73.033931 
L 124.757919 72.84627 
L 125.162761 71.894328 
L 125.567604 72.337495 
L 125.972446 72.190698 
L 126.377289 71.698961 
L 126.782131 71.705227 
L 127.591816 71.341529 
L 127.996658 71.28946 
L 128.401501 71.379776 
L 128.806343 71.610156 
L 129.211186 70.878912 
L 129.616028 72.191282 
L 130.02087 71.973527 
L 130.425713 72.201522 
L 131.64024 71.306343 
L 132.045082 71.331436 
L 132.449925 71.541751 
L 132.854767 71.266564 
L 133.25961 72.456402 
L 133.664452 70.93416 
L 134.474137 69.0655 
L 134.878979 68.455812 
L 135.283822 69.761002 
L 135.688664 68.888147 
L 136.498349 70.650901 
L 136.903191 70.308596 
L 137.308034 70.148248 
L 137.712876 72.186606 
L 138.117719 71.809259 
L 139.332246 70.109489 
L 140.141931 69.877723 
L 140.951615 70.724419 
L 141.356458 70.833121 
L 141.7613 71.192904 
L 142.166143 71.192931 
L 142.570985 69.256527 
L 142.975827 70.854416 
L 143.38067 70.67668 
L 143.785512 71.294392 
L 144.190355 70.693444 
L 145.000039 71.148922 
L 145.404882 69.868519 
L 145.809724 71.385924 
L 146.214567 71.088427 
L 146.619409 70.468292 
L 147.024251 69.613913 
L 147.429094 67.566176 
L 147.833936 67.695219 
L 148.238779 67.221914 
L 148.643621 66.034717 
L 149.048464 66.362282 
L 149.453306 66.414574 
L 149.858148 65.552904 
L 150.262991 66.270123 
L 150.667833 65.998648 
L 151.072676 68.394901 
L 151.477518 69.397731 
L 151.88236 69.744019 
L 152.287203 69.753082 
L 152.692045 69.394366 
L 153.906572 67.788553 
L 154.311415 70.171125 
L 154.716257 68.255119 
L 155.1211 68.358899 
L 155.525942 68.940709 
L 155.930784 68.055625 
L 156.740469 67.409273 
L 157.145312 67.269894 
L 157.550154 67.374233 
L 157.954996 67.747485 
L 158.764681 69.16731 
L 159.574366 70.879795 
L 159.979209 71.098496 
L 160.384051 72.043417 
L 161.193736 72.625333 
L 161.598578 69.882301 
L 162.003421 73.073563 
L 162.408263 73.634196 
L 162.813105 73.040887 
L 163.217948 72.657468 
L 163.62279 70.457616 
L 164.027633 71.400634 
L 164.432475 70.97555 
L 164.837317 70.753101 
L 165.24216 71.127079 
L 165.647002 74.27807 
L 166.051845 73.28905 
L 167.266372 77.756395 
L 167.671214 80.767375 
L 168.076057 81.137428 
L 168.885741 85.700352 
L 169.290584 88.453676 
L 170.100269 96.176457 
L 170.505111 98.078529 
L 171.314796 105.164672 
L 171.719638 106.935426 
L 172.529323 119.228748 
L 174.148693 133.278058 
L 174.553535 137.238155 
L 174.958378 139.445954 
L 175.36322 144.886368 
L 175.768062 147.926126 
L 176.577747 157.60874 
L 176.98259 159.563449 
L 177.387432 165.580368 
L 179.006802 179.039523 
L 180.221329 188.311957 
L 181.435856 196.231633 
L 181.840699 197.42482 
L 182.245541 200.422215 
L 183.460068 206.011039 
L 183.864911 207.042148 
L 184.269753 208.874852 
L 185.079438 211.331922 
L 185.48428 212.39826 
L 185.889123 212.750041 
L 186.293965 214.082246 
L 187.10365 215.321066 
L 187.913335 216.205383 
L 188.723019 216.901354 
L 189.937547 217.605656 
L 191.152074 218.016093 
L 192.366601 218.277968 
L 194.390813 218.454506 
L 197.629552 218.531825 
L 218.681358 218.541853 
L 256.331701 218.541853 
L 256.331701 218.541853 
" style="fill:none;stroke:#5d3a9b;stroke-linecap:square;stroke-width:1.5;"/>
   </g>
   <g id="patch_3">
    <path d="M 43.78125 228.605751 
L 43.78125 7.2 
" style="fill:none;stroke:#000000;stroke-linecap:square;stroke-linejoin:miter;stroke-width:0.8;"/>
   </g>
   <g id="patch_4">
    <path d="M 266.6247 228.605751 
L 266.6247 7.2 
" style="fill:none;stroke:#000000;stroke-linecap:square;stroke-linejoin:miter;stroke-width:0.8;"/>
   </g>
   <g id="patch_5">
    <path d="M 43.78125 228.605751 
L 266.6247 228.605751 
" style="fill:none;stroke:#000000;stroke-linecap:square;stroke-linejoin:miter;stroke-width:0.8;"/>
   </g>
   <g id="patch_6">
    <path d="M 43.78125 7.2 
L 266.6247 7.2 
" style="fill:none;stroke:#000000;stroke-linecap:square;stroke-linejoin:miter;stroke-width:0.8;"/>
   </g>
   <g id="legend_1">
    <g id="patch_7">
     <path d="M 200.1747 44.55625 
L 259.6247 44.55625 
Q 261.6247 44.55625 261.6247 42.55625 
L 261.6247 14.2 
Q 261.6247 12.2 259.6247 12.2 
L 200.1747 12.2 
Q 198.1747 12.2 198.1747 14.2 
L 198.1747 42.55625 
Q 198.1747 44.55625 200.1747 44.55625 
z
" style="fill:#ffffff;opacity:0.8;stroke:#cccccc;stroke-linejoin:miter;"/>
    </g>
    <g id="line2d_9">
     <path d="M 202.1747 20.298438 
L 222.1747 20.298438 
" style="fill:none;stroke:#e66100;stroke-linecap:square;stroke-width:1.5;"/>
    </g>
    <g id="line2d_10"/>
    <g id="text_9">
     <!-- Wave -->
     <g transform="translate(230.1747 23.798438)scale(0.1 -0.1)">
      <defs>
       <path d="M 213 4666 
L 850 4666 
L 1831 722 
L 2809 4666 
L 3519 4666 
L 4500 722 
L 5478 4666 
L 6119 4666 
L 4947 0 
L 4153 0 
L 3169 4050 
L 2175 0 
L 1381 0 
L 213 4666 
z
" id="DejaVuSans-57" transform="scale(0.015625)"/>
       <path d="M 191 3500 
L 800 3500 
L 1894 563 
L 2988 3500 
L 3597 3500 
L 2284 0 
L 1503 0 
L 191 3500 
z
" id="DejaVuSans-76" transform="scale(0.015625)"/>
       <path d="M 3597 1894 
L 3597 1613 
L 953 1613 
Q 991 1019 1311 708 
Q 1631 397 2203 397 
Q 2534 397 2845 478 
Q 3156 559 3463 722 
L 3463 178 
Q 3153 47 2828 -22 
Q 2503 -91 2169 -91 
Q 1331 -91 842 396 
Q 353 884 353 1716 
Q 353 2575 817 3079 
Q 1281 3584 2069 3584 
Q 2775 3584 3186 3129 
Q 3597 2675 3597 1894 
z
M 3022 2063 
Q 3016 2534 2758 2815 
Q 2500 3097 2075 3097 
Q 1594 3097 1305 2825 
Q 1016 2553 972 2059 
L 3022 2063 
z
" id="DejaVuSans-65" transform="scale(0.015625)"/>
      </defs>
      <use xlink:href="#DejaVuSans-57"/>
      <use x="92.501953" xlink:href="#DejaVuSans-61"/>
      <use x="153.78125" xlink:href="#DejaVuSans-76"/>
      <use x="212.960938" xlink:href="#DejaVuSans-65"/>
     </g>
    </g>
    <g id="line2d_11">
     <path d="M 202.1747 34.976563 
L 222.1747 34.976563 
" style="fill:none;stroke:#5d3a9b;stroke-linecap:square;stroke-width:1.5;"/>
    </g>
    <g id="line2d_12"/>
    <g id="text_10">
     <!-- Ray -->
     <g transform="translate(230.1747 38.476563)scale(0.1 -0.1)">
      <defs>
       <path d="M 2841 2188 
Q 3044 2119 3236 1894 
Q 3428 1669 3622 1275 
L 4263 0 
L 3584 0 
L 2988 1197 
Q 2756 1666 2539 1819 
Q 2322 1972 1947 1972 
L 1259 1972 
L 1259 0 
L 628 0 
L 628 4666 
L 2053 4666 
Q 2853 4666 3247 4331 
Q 3641 3997 3641 3322 
Q 3641 2881 3436 2590 
Q 3231 2300 2841 2188 
z
M 1259 4147 
L 1259 2491 
L 2053 2491 
Q 2509 2491 2742 2702 
Q 2975 2913 2975 3322 
Q 2975 3731 2742 3939 
Q 2509 4147 2053 4147 
L 1259 4147 
z
" id="DejaVuSans-52" transform="scale(0.015625)"/>
       <path d="M 2059 -325 
Q 1816 -950 1584 -1140 
Q 1353 -1331 966 -1331 
L 506 -1331 
L 506 -850 
L 844 -850 
Q 1081 -850 1212 -737 
Q 1344 -625 1503 -206 
L 1606 56 
L 191 3500 
L 800 3500 
L 1894 763 
L 2988 3500 
L 3597 3500 
L 2059 -325 
z
" id="DejaVuSans-79" transform="scale(0.015625)"/>
      </defs>
      <use xlink:href="#DejaVuSans-52"/>
      <use x="67.232422" xlink:href="#DejaVuSans-61"/>
      <use x="128.511719" xlink:href="#DejaVuSans-79"/>
     </g>
    </g>
   </g>
  </g>
 </g>
 <defs>
  <clipPath id="p967c911418">
   <rect height="221.405751" width="222.84345" x="43.78125" y="7.2"/>
  </clipPath>
 </defs>
</svg>
